<svg xmlns="http://www.w3.org/2000/svg" xmlns:xlink="http://www.w3.org/1999/xlink" width="375" height="375" viewBox="0 0 375 375">
  <defs>
    <clipPath id="clip-Splash_Screen_4c">
      <rect width="375" height="375"/>
    </clipPath>
  </defs>
  <g id="Splash_Screen_4c" data-name="Splash Screen – 4c" clip-path="url(#clip-Splash_Screen_4c)">
    <rect id="Rectangle_118" data-name="Rectangle 118" width="285" height="285" rx="22" transform="translate(45 45)" fill="#d2deff"/>
    <path id="Path_61" data-name="Path 61" d="M124.548-19.841c35.591,0,140.4,106.139,140.4,143.887s-104.809,140.282-140.4,140.282S-20.014,161.793-20.014,124.046,88.957-19.841,124.548-19.841Z" transform="translate(65.136 64.608)" fill="#5069b4"/>
    <g id="Placeholder_fill" data-name="Placeholder fill" transform="translate(150.574 134.597)">
      <g id="Group_251" data-name="Group 251" transform="translate(0)">
        <path id="Path_83" data-name="Path 83" d="M108.655,0A38.125,38.125,0,0,0,70.573,38.082c0,26.059,34.079,64.316,35.53,65.932a3.43,3.43,0,0,0,5.1,0c1.451-1.616,35.53-39.873,35.53-65.932A38.125,38.125,0,0,0,108.655,0Zm0,57.241a19.16,19.16,0,1,1,19.16-19.16A19.181,19.181,0,0,1,108.655,57.241Z" transform="translate(-70.573)" fill="#d2deff"/>
      </g>
    </g>
  </g>
</svg>
